<svg xmlns="http://www.w3.org/2000/svg" width="2287.862" height="2287.862">
    <rect x="293.538" y="293.538" width="1700.787" height="1700.787" rx="141.732" transform="rotate(-45 1143.93 1143.931)" style="fill:#fc0"/>
    <path d="M1083.805 81.6a85.04 85.04 0 0 1 120.256 0l1002.203 1002.203a85.04 85.04 0 0 1 0 120.256L1204.06 2206.262a85.04 85.04 0 0 1-120.255 0L81.6 1204.06a85.04 85.04 0 0 1 0-120.256L1083.805 81.6m-20.044-20.044L61.557 1063.759a113.386 113.386 0 0 0 0 160.344l1002.204 1002.203a113.386 113.386 0 0 0 160.343 0l1002.204-1002.203a113.386 113.386 0 0 0 0-160.344L1224.104 61.555a113.386 113.386 0 0 0-160.343 0Z"/>
    <path d="M1002.197 1112.747c-112.72 0-204.09 91.38-204.09 204.1s91.37 204.09 204.09 204.09 204.1-91.37 204.1-204.09-91.38-204.1-204.1-204.1Zm0 291.97a87.875 87.875 0 1 1 87.88-87.87 87.869 87.869 0 0 1-87.88 87.87ZM1552.117 1112.747c-112.72 0-204.09 91.38-204.09 204.1s91.37 204.09 204.09 204.09 204.1-91.37 204.1-204.09-91.38-204.1-204.1-204.1Zm0 291.97a87.875 87.875 0 1 1 87.88-87.87 87.87 87.87 0 0 1-87.88 87.87Z"/>
    <path d="M1625.817 917.157v-297.64h-481.89v297.64h-280.63l-192.75 96.38v56.69h-83.62v-130.39h-35.44l-99.21 308.98-133.23 59.52v36.85h267.88v-127.56h83.62v48.19l62.36 51.03h31.18c0-131.51 106.61-238.11 238.11-238.11 131.51 0 238.11 106.6 238.11 238.11h73.7c0-131.51 106.61-238.11 238.11-238.11 131.51 0 238.11 106.6 238.11 238.11h34.74v-399.69Zm-192.75 0h-232.44v-238.11h232.44Z"/>
</svg>
